<?xml version="1.0" standalone="no"?>
<!DOCTYPE svg PUBLIC "-//W3C//DTD SVG 20010904//EN"
 "http://www.w3.org/TR/2001/REC-SVG-20010904/DTD/svg10.dtd">
<svg version="1.0" xmlns="http://www.w3.org/2000/svg"
 width="600.000000pt" height="600.000000pt" viewBox="0 0 600.000000 600.000000"
 preserveAspectRatio="xMidYMid meet">
<metadata>
Created by potrace 1.14, written by Peter Selinger 2001-2017
</metadata>
<g transform="translate(0.000000,600.000000) scale(0.100000,-0.100000)"
fill="#000000" stroke="none">
<path d="M2799 5996 c-2 -2 -38 -6 -79 -10 -41 -3 -86 -8 -100 -10 -14 -3 -43
-7 -65 -10 -22 -3 -65 -10 -95 -16 -30 -6 -68 -13 -85 -16 -289 -50 -711 -225
-1000 -413 -285 -185 -595 -472 -768 -711 -147 -204 -174 -248 -281 -455 -105
-201 -214 -500 -252 -690 -30 -150 -49 -268 -62 -385 -9 -85 -9 -477 1 -560
21 -190 42 -311 82 -465 193 -752 663 -1394 1319 -1803 296 -185 681 -337
1001 -396 239 -44 314 -51 585 -51 198 0 316 6 400 19 14 3 59 10 100 16 41 6
137 27 213 46 543 135 1012 398 1402 789 142 142 207 215 278 315 25 36 51 70
56 77 6 6 29 40 51 75 22 35 43 68 48 73 42 53 183 335 240 480 147 378 209
707 209 1110 0 110 -4 232 -8 270 -5 39 -11 93 -14 120 -4 28 -8 61 -10 75
-12 74 -16 96 -20 110 -2 8 -7 30 -10 49 -12 71 -90 342 -114 396 -5 11 -26
63 -46 115 -91 228 -238 483 -399 690 -96 125 -127 160 -246 279 -141 142
-194 188 -395 339 -28 20 -158 105 -218 141 -78 46 -350 181 -378 186 -10 2
-26 8 -36 13 -36 20 -231 84 -338 112 -117 31 -291 64 -390 76 -33 3 -69 9
-80 11 -23 5 -491 13 -496 9z"/>
</g>
</svg>
